
<svg
   viewBox="0 0 32 9"
   preserveAspectRatio="none"
  
   xmlns="http://www.w3.org/2000/svg"
  >

  <path
    fill="#000"
     d="M -0.07313683,0.02067182 V 7.9500467 L 0.06503041,6.7534196 0.12469318,8.0394501 0.56431614,5.6186869 1.0950039,7.8193807 1.2394516,2.7852934 1.5974301,7.8193807 1.97739,5.3298457 2.5771615,7.9500467 3.0199248,1.7674725 3.8049657,8.080713 4.0655994,3.3354669 4.7313142,8.9403589 5.5194954,2.3657862 5.9182964,7.8193807 6.866626,5.1991794 7.592004,7.8193807 8.0536081,2.6133642 8.8826115,7.8193807 9.6079894,6.244509 10.01935,7.8193807 l 0.571511,-6.1069255 0.530688,5.7149267 0.596631,-4.745246 0.916929,5.3985771 0.244931,-6.746502 0.829004,5.0409643 0.18841,-0.9146633 0.536968,1.5679943 0.37682,-4.1538097 0.725377,5.0753501 0.348559,-1.8362037 0.502426,2.3588685 0.163289,-6.4439066 0.59349,4.9997014 0.442764,-3.3423039 0.442763,3.2116376 0.612334,-4.8552807 0.144441,5.3848226 0.408222,-1.5748714 0.285755,1.7055377 0.09735,-5.2541565 0.373679,3.1566203 0.41136,1.8362036 0.34542,-6.80839628 0.348558,6.93906258 0.502426,-3.2872862 0.536967,2.8884106 0.34856,-1.8293269 0.533826,2.8815336 0.351698,-6.663976 0.502427,6.1413112 0.376822,-2.620201 0.442761,1.9599928 0.219812,-2.1044133 0.442762,2.372623 0.496147,-7.14537788 z m 0,7.92937488 v 1.3960652 h 0.0031335 z M 25.820659,0.02067182 l 0.282615,6.35450348 0.21981,-0.9146633 0.314018,1.5679943 0.533826,-4.2432129 0.414504,5.1647533 0.533826,-2.7508673 0.285755,2.6202013 0.439624,-6.2444689 0.411362,5.192262 0.314015,-2.2350796 0.693976,3.2872865 0.794462,-6.86341398 0.405081,6.34074888 0.314017,-2.8952877 0.285756,1.8774672 V 0.02067182 Z" />
</svg>
